<svg xmlns="http://www.w3.org/2000/svg" width="140" height="239"><g font-weight="400" color="#000" font-family="Sans"><path style="text-indent:0;text-align:start;line-height:normal;text-transform:none;block-progression:tb;marker:none;-inkscape-font-specification:Sans" d="M55.016.105a96.34 96.34 0 0 0-13.041 1.503c-.042.005-.08.026-.121.03-14.367 1.626-25.707 9.917-32.967 21.136C1.687 33.899.037 47.79 0 61.394c-.114 42.601 25.227 60.982 49.89 67.423h.092l.09.031c22.561 3.026 47.772 2.697 69.028-7.883l.152-.092.151-.092c11.737-8.673 17.992-22.02 19.926-36.166 1.931-14.124-.389-29.118-5.914-41.565-.01-.022-.021-.04-.03-.061C126.2 25.232 111.77 13.287 94.989 6.608 82.39 1.592 68.437-.512 55.016.105z" fill="#bd5b12" overflow="visible"/><path style="text-indent:0;text-align:start;line-height:normal;text-transform:none;block-progression:tb;marker:none;-inkscape-font-specification:Sans" d="M69.467 9.021a3.775 3.775 0 0 0-3.912 3.64c-.055 1.611.935 3.016 2.335 3.61L66.404 61.17l-10.13-28.273a3.795 3.795 0 0 0 1.032-4.096 3.76 3.76 0 0 0-4.822-2.275c-1.968.704-3.009 2.856-2.305 4.824a3.82 3.82 0 0 0 3.366 2.518l12.586 35.22-1.637 48.902-24.415-57.73h.06l3.276-40.135c1.428-.446 2.508-1.693 2.638-3.276.172-2.083-1.375-3.924-3.457-4.095a3.73 3.73 0 0 0-.758 0 3.815 3.815 0 0 0-3.336 3.458 3.818 3.818 0 0 0 2.001 3.67l-2.82 34.675L25.52 25.828c.642-.679 1.062-1.572 1.062-2.58a3.797 3.797 0 0 0-3.791-3.791A3.797 3.797 0 0 0 19 23.249c0 2.09 1.702 3.762 3.792 3.762h.09l5.338 12.65-5.52-1.82a3.833 3.833 0 0 0-2.608-3.307c-1.985-.651-4.11.441-4.761 2.427-.651 1.986.41 4.142 2.396 4.793a3.796 3.796 0 0 0 4.064-1.153l7.915 2.61 16.438 38.86-27.538-25.392a3.802 3.802 0 0 0-1-4.095 3.773 3.773 0 0 0-5.338.212c-1.416 1.538-1.325 3.954.212 5.37a3.827 3.827 0 0 0 4.155.667h.03l14.163 13.045-14.163.06a3.781 3.781 0 0 0-3.488-2.305c-2.09.006-3.797 1.702-3.79 3.792.01 2.09 1.731 3.768 3.82 3.762 1.578-.005 2.893-.962 3.458-2.336l17.317-.06 14.922 13.772 15.346 36.312L60.43 238.91l2.911.09 4.064-121.01 14.528-21.994 11.221-5.915 28.57-.729a3.811 3.811 0 0 0 3.548 2.245 3.773 3.773 0 0 0 3.7-3.852 3.773 3.773 0 0 0-3.852-3.701 3.786 3.786 0 0 0-3.457 2.396l-22.716.577 23.898-12.62a3.77 3.77 0 0 0 4.216.485c1.85-.97 2.577-3.245 1.607-5.096-.969-1.852-3.274-2.578-5.125-1.608-1.378.722-2.11 2.18-2.002 3.64l-11.1 5.855 4.883-11.406h.03a3.74 3.74 0 0 0 3.427-2.306 3.778 3.778 0 0 0-2.032-4.945 3.776 3.776 0 0 0-4.943 2.033c-.614 1.467-.218 3.072.849 4.125l-6.308 14.653-21.079 11.133 25.203-38.193h.03a3.785 3.785 0 0 0 3.822-1.638c1.152-1.743.65-4.096-1.092-5.248a3.786 3.786 0 0 0-5.247 1.061c-.877 1.328-.791 3.013.06 4.248l-9.402 14.227 3.67-19.779 11.252-9.253c.01.004.023-.004.03 0a3.78 3.78 0 0 0 4.155-.455c1.602-1.341 1.826-3.736.485-5.339-1.341-1.602-3.736-1.796-5.338-.455a3.773 3.773 0 0 0-1.183 4.005l-8.552 7.068 2.183-11.862h.03a3.822 3.822 0 0 0 2.912-3.033 3.774 3.774 0 0 0-3.033-4.399c-2.054-.383-4.015.98-4.397 3.034a3.805 3.805 0 0 0 1.607 3.852l-7.976 42.896-26.902 40.711.82-24.42L92.09 33.653c1.475.012 2.896-.836 3.518-2.275a3.784 3.784 0 1 0-6.945-3.003 3.797 3.797 0 0 0 .758 4.156L83.204 46.79l.182-21.57c1.396-.547 2.413-1.927 2.426-3.518a3.798 3.798 0 0 0-3.76-3.823 3.797 3.797 0 0 0-3.822 3.762 3.785 3.785 0 0 0 2.244 3.489l-.243 28.303h.06L68.676 80.07l2.123-63.797c1.322-.554 2.283-1.811 2.335-3.337.071-2.089-1.582-3.843-3.67-3.914z" fill="#b58900" overflow="visible"/></g></svg>