<?xml version="1.0" encoding="UTF-8" standalone="no"?>
<!-- Created with Inkscape (http://www.inkscape.org/) -->

<svg
   xmlns:dc="http://purl.org/dc/elements/1.1/"
   xmlns:cc="http://creativecommons.org/ns#"
   xmlns:rdf="http://www.w3.org/1999/02/22-rdf-syntax-ns#"
   xmlns:svg="http://www.w3.org/2000/svg"
   xmlns="http://www.w3.org/2000/svg"
   xmlns:sodipodi="http://sodipodi.sourceforge.net/DTD/sodipodi-0.dtd"
   xmlns:inkscape="http://www.inkscape.org/namespaces/inkscape"
   width="139.99992"
   height="239.64885"
   id="svg3269"
   version="1.1"
   inkscape:version="0.48.4 r9943 custom"
   sodipodi:docname="logo.svg">
  <defs
     id="defs3271" />
  <sodipodi:namedview
     id="base"
     pagecolor="#ffffff"
     bordercolor="#666666"
     borderopacity="1.0"
     inkscape:pageopacity="0.0"
     inkscape:pageshadow="2"
     inkscape:zoom="0.35"
     inkscape:cx="-322.85718"
     inkscape:cy="329.753"
     inkscape:document-units="px"
     inkscape:current-layer="layer1"
     showgrid="false"
     fit-margin-top="0"
     fit-margin-left="0"
     fit-margin-right="0"
     fit-margin-bottom="0"
     inkscape:window-width="448"
     inkscape:window-height="343"
     inkscape:window-x="0"
     inkscape:window-y="285"
     inkscape:window-maximized="0" />
  <metadata
     id="metadata3274">
    <rdf:RDF>
      <cc:Work
         rdf:about="">
        <dc:format>image/svg+xml</dc:format>
        <dc:type
           rdf:resource="http://purl.org/dc/dcmitype/StillImage" />
        <dc:title></dc:title>
      </cc:Work>
    </rdf:RDF>
  </metadata>
  <g
     inkscape:label="Layer 1"
     inkscape:groupmode="layer"
     id="layer1"
     transform="translate(-697.85718,-622.46632)">
    <path
       style="font-size:medium;font-style:normal;font-variant:normal;font-weight:normal;font-stretch:normal;text-indent:0;text-align:start;text-decoration:none;line-height:normal;letter-spacing:normal;word-spacing:normal;text-transform:none;direction:ltr;block-progression:tb;writing-mode:lr-tb;text-anchor:start;baseline-shift:baseline;color:#000000;fill:#bd5b12;fill-opacity:1;fill-rule:nonzero;stroke:none;stroke-width:4;marker:none;visibility:visible;display:inline;overflow:visible;enable-background:accumulate;font-family:Sans;-inkscape-font-specification:Sans"
       d="m 753.10257,622.57385 c -4.41986,0.20933 -8.76891,0.73815 -13.00606,1.54241 -0.0421,0.005 -0.0789,0.0266 -0.12098,0.0315 -14.32823,1.66815 -25.63754,10.17647 -32.87811,21.68809 -7.18063,11.41634 -10.40507,25.76105 -8.86226,39.63033 0.006,0.0523 -0.006,0.10513 0,0.15739 -3.61522,33.24767 19.34737,61.72978 49.75573,69.03042 l 0.0907,0 0.0907,0.0315 c 22.4999,3.10482 47.64318,2.76783 68.84136,-8.08974 l 0.15124,-0.0944 0.15123,-0.0944 c 11.7049,-8.89914 17.94298,-22.59567 19.87204,-37.11212 1.92592,-14.49272 -0.38765,-29.87984 -5.89809,-42.65219 -0.009,-0.0221 -0.0216,-0.0409 -0.0302,-0.063 -7.16568,-18.22076 -21.55682,-30.47848 -38.29225,-37.33249 -12.5668,-5.14674 -26.48026,-7.30716 -39.86508,-6.67326 z"
       id="path4518"
       inkscape:connector-curvature="0" />
    <path
       id="path5470"
       d="m 767.5152,632.82037 c -2.08247,-0.071 -3.83078,1.54558 -3.90182,3.62597 -0.0548,1.60414 0.93276,3.00386 2.329,3.59576 l -1.48209,44.72033 -10.10238,-28.16173 c 1.10455,-0.99321 1.55963,-2.5955 1.02839,-4.07921 -0.70178,-1.95999 -2.84728,-2.96731 -4.80922,-2.26624 -1.96195,0.70108 -3.00052,2.84443 -2.29874,4.80442 0.52633,1.46998 1.88876,2.42449 3.35737,2.50796 l 12.55236,35.08129 -1.63332,48.70888 -24.34855,-57.50187 0.0605,0 3.26664,-39.97635 c 1.42427,-0.44457 2.50161,-1.68709 2.63146,-3.26337 0.17089,-2.07459 -1.37146,-3.90849 -3.44812,-4.07922 -0.25958,-0.0213 -0.50689,-0.0299 -0.75617,0 -1.7449,0.20891 -3.17759,1.62941 -3.32712,3.44467 -0.12743,1.54683 0.70625,2.96989 1.99627,3.65619 l -2.81293,34.53739 -12.12891,-28.61497 c 0.64029,-0.67582 1.05864,-1.56513 1.05864,-2.56839 0,-2.0816 -1.69716,-3.77706 -3.78083,-3.77706 -2.08368,0 -3.78083,1.69546 -3.78083,3.77706 0,2.0816 1.69715,3.74684 3.78083,3.74684 0.0311,0 0.0599,7.4e-4 0.0907,0 l 5.3234,12.60025 -5.50488,-1.81299 c -0.12279,-1.46439 -1.11621,-2.80727 -2.60121,-3.29359 -1.98001,-0.64841 -4.09966,0.43929 -4.74873,2.41732 -0.64906,1.97803 0.40948,4.12578 2.38949,4.7742 1.49886,0.49085 3.08873,-0.0186 4.05305,-1.14823 l 7.89437,2.59861 16.39368,38.70726 -27.46395,-25.29116 c 0.5098,-1.38925 0.15855,-3.01489 -0.99814,-4.07922 -1.53263,-1.41024 -3.91175,-1.31958 -5.32341,0.21152 -1.41165,1.5311 -1.3209,3.93806 0.21173,5.34831 1.14947,1.05768 2.80434,1.27217 4.14379,0.66476 l 0.0303,0 14.12518,12.99307 -14.12518,0.0604 c -0.57714,-1.35169 -1.91561,-2.30087 -3.47837,-2.29645 -2.08367,0.006 -3.78674,1.69547 -3.78083,3.77706 0.006,2.08159 1.72741,3.75273 3.81108,3.74683 1.57275,-0.005 2.88496,-0.95791 3.44812,-2.32666 l 17.27083,-0.0604 14.88135,13.71826 14.50362,35.04852 c 0,0 -1.53868,44.11841 -2.55821,62.61413 -1.00425,18.10494 -2.97339,52.40465 -2.97339,52.40465 l 7.4297,-0.002 c 0,0 0.76673,-36.27044 1.0411,-54.32803 0.28396,-24.46048 0.57053,-43.7031 1.00763,-66.42782 l 14.48814,-21.90653 11.19126,-5.8922 28.49234,-0.7252 c 0.59959,1.34191 1.97639,2.26645 3.53886,2.23602 2.08328,-0.0406 3.73074,-1.75629 3.69009,-3.83749 -0.0406,-2.0812 -1.75804,-3.72698 -3.84133,-3.6864 -1.57245,0.0306 -2.90787,1.00916 -3.44811,2.38709 l -22.65474,0.57418 23.83435,-12.57004 c 1.13859,0.97847 2.79357,1.22158 4.20429,0.48346 1.84584,-0.96578 2.56982,-3.23237 1.60307,-5.07636 -0.96674,-1.844 -3.26584,-2.56725 -5.11168,-1.60147 -1.37477,0.7193 -2.10413,2.17162 -1.99628,3.62597 l -11.07027,5.83177 4.86971,-11.36138 0.0302,0 c 1.45975,-0.0182 2.81929,-0.86597 3.41787,-2.29645 0.80363,-1.92055 -0.10406,-4.12245 -2.02653,-4.92528 -1.92248,-0.80283 -4.12657,0.10395 -4.9302,2.0245 -0.61152,1.46143 -0.21659,3.06028 0.8469,4.10944 l -6.2913,14.59454 -21.02137,11.08948 25.13496,-38.0425 0.0302,0 c 1.43739,0.25496 2.95514,-0.33836 3.81108,-1.63169 1.14917,-1.7364 0.64926,-4.07941 -1.08888,-5.22744 -1.73813,-1.14802 -4.0835,-0.67883 -5.23267,1.05758 -0.87487,1.32193 -0.78886,3.0007 0.0605,4.2303 l -9.37647,14.17151 3.65984,-19.70112 11.22151,-9.21601 c 0.008,0.004 0.0228,-0.004 0.0302,0 1.30914,0.67012 2.94545,0.54884 4.14379,-0.45325 1.59779,-1.33612 1.82141,-3.7219 0.48395,-5.31809 -1.33746,-1.5962 -3.72562,-1.78937 -5.32341,-0.45325 -1.19835,1.00209 -1.60954,2.58321 -1.17962,3.98857 l -8.52955,7.04043 2.17775,-11.81463 0.0302,0 c 1.43678,-0.31509 2.61738,-1.48687 2.90368,-3.02164 0.38174,-2.04637 -0.97625,-4.00003 -3.02466,-4.38139 -2.04842,-0.38135 -4.00403,0.97528 -4.38577,3.02165 -0.28475,1.52648 0.38877,3.0236 1.60307,3.83749 l -7.95472,42.72604 -26.82877,40.55045 0.81666,-24.32422 23.62263,-54.11764 c 1.47094,0.0117 2.88813,-0.83337 3.50861,-2.26624 0.8273,-1.91049 -0.0536,-4.12902 -1.96603,-4.95549 -1.91241,-0.82648 -4.13315,0.0536 -4.96045,1.96407 -0.62635,1.44641 -0.28201,3.07709 0.75616,4.13965 l -6.20056,14.20172 0.18148,-21.48388 c 1.39232,-0.54608 2.40667,-1.92011 2.41973,-3.50511 0.0172,-2.08153 -1.66697,-3.79013 -3.75058,-3.80727 -2.08361,-0.0171 -3.79392,1.66531 -3.81108,3.74684 -0.0127,1.54646 0.90872,2.88233 2.23825,3.47489 l -0.24197,28.19193 0.0605,0 -11.58447,26.53004 2.11727,-63.54517 c 1.31916,-0.55139 2.27708,-1.80342 2.32899,-3.32381 0.071,-2.08039 -1.57737,-3.82696 -3.65984,-3.89792 z"
       style="font-size:medium;font-style:normal;font-variant:normal;font-weight:normal;font-stretch:normal;text-indent:0;text-align:start;text-decoration:none;line-height:normal;letter-spacing:normal;word-spacing:normal;text-transform:none;direction:ltr;block-progression:tb;writing-mode:lr-tb;text-anchor:start;baseline-shift:baseline;color:#000000;fill:#b58900;fill-opacity:1;stroke:none;stroke-width:3;marker:none;visibility:visible;display:inline;overflow:visible;enable-background:accumulate;font-family:Sans;-inkscape-font-specification:Sans"
       inkscape:connector-curvature="0"
       sodipodi:nodetypes="sscccsssccccccsssscccsssscccsssccccsssccccsssccccccccccccscscccsssccccssscccccssscccccsssccccssscccccssscccssscccccss" />
  </g>
</svg>
