<?xml version="1.0" encoding="UTF-8" standalone="no"?>
<!-- Created with Inkscape (http://www.inkscape.org/) -->

<svg
   xmlns:dc="http://purl.org/dc/elements/1.1/"
   xmlns:cc="http://creativecommons.org/ns#"
   xmlns:rdf="http://www.w3.org/1999/02/22-rdf-syntax-ns#"
   xmlns:svg="http://www.w3.org/2000/svg"
   xmlns="http://www.w3.org/2000/svg"
   xmlns:sodipodi="http://sodipodi.sourceforge.net/DTD/sodipodi-0.dtd"
   xmlns:inkscape="http://www.inkscape.org/namespaces/inkscape"
   width="34"
   height="58"
   id="svg3067"
   version="1.1"
   inkscape:version="0.48.4 r9943 custom"
   sodipodi:docname="logo-thick.svg">
  <defs
     id="defs3069" />
  <sodipodi:namedview
     id="base"
     pagecolor="#ffffff"
     bordercolor="#666666"
     borderopacity="1.0"
     inkscape:pageopacity="0.0"
     inkscape:pageshadow="2"
     inkscape:zoom="0.35"
     inkscape:cx="70.000005"
     inkscape:cy="121.21004"
     inkscape:document-units="px"
     inkscape:current-layer="layer1"
     showgrid="false"
     fit-margin-top="0"
     fit-margin-left="0"
     fit-margin-right="0"
     fit-margin-bottom="0"
     inkscape:window-width="1024"
     inkscape:window-height="580"
     inkscape:window-x="0"
     inkscape:window-y="23"
     inkscape:window-maximized="0" />
  <metadata
     id="metadata3072">
    <rdf:RDF>
      <cc:Work
         rdf:about="">
        <dc:format>image/svg+xml</dc:format>
        <dc:type
           rdf:resource="http://purl.org/dc/dcmitype/StillImage" />
        <dc:title />
      </cc:Work>
    </rdf:RDF>
  </metadata>
  <g
     inkscape:label="Layer 1"
     inkscape:groupmode="layer"
     id="layer1"
     transform="translate(-304.99999,-595.57221)">
    <g
       id="g2992"
       transform="matrix(0.24285713,0,0,0.23925411,230.92857,497.20237)">
      <path
         sodipodi:nodetypes="scccccccss"
         inkscape:connector-curvature="0"
         id="path3333-2"
         d="m 354.75626,538.47823 c -15.21602,-6.45347 -32.09265,-12.79714 -41.87635,-27.08475 -5.59238,-8.05407 -4.83607,-18.21494 -6.67264,-27.42314 -2.26596,-18.37433 -2.45651,-39.17638 9.55672,-54.47562 12.45795,-15.16902 33.58918,-19.40868 52.31247,-18.12735 13.89973,1.16666 27.89817,4.02345 40.65814,9.75419 25.1097,12.83558 38.14799,42.50054 36.04537,69.88683 -1.02449,12.60215 -4.97659,25.45971 -13.12636,35.28114 -13.36865,12.59446 -32.94365,11.39812 -50.20067,13.36017 -4.14086,0.47079 -16.55055,3.13175 -26.69668,-1.17147 z"
         style="fill:#859900;fill-opacity:1;display:inline" />
      <path
         sodipodi:nodetypes="cccccssscccccssccccscsscccccsccccccsscccsccccccccccsscccccsscccccccsccsccccsscccccsccsccccccscccccscccccccscccccsccsccccccscc"
         id="path5328-9"
         d="m 342.41717,422.41488 c -1.34988,0.0211 -2.43284,1.12982 -2.41176,2.47969 0.0141,0.90529 0.51847,1.6947 1.25683,2.10604 l 0.57747,36.80472 -12.92497,-30.55455 c 0.28814,-0.40124 0.47556,-0.87836 0.47556,-1.40968 0,-1.35004 -1.09568,-2.44573 -2.44572,-2.44573 -1.35004,0 -2.44572,1.09569 -2.44572,2.44573 0,1.25672 0.95371,2.2745 2.17397,2.41175 l 6.45399,15.26878 -6.96351,-1.27381 c -0.28366,-0.79645 -0.9605,-1.43306 -1.85128,-1.59652 -0.16598,-0.0304 -0.33011,-0.0373 -0.49254,-0.034 -1.13703,0.0234 -2.14761,0.84225 -2.3608,2.00414 -0.24366,1.32787 0.64229,2.60968 1.97016,2.85334 0.88962,0.16324 1.74481,-0.19 2.29287,-0.83222 l 8.54304,1.56254 16.93323,40.06568 -29.92613,-31.60756 c 0.23462,-0.80706 0.059,-1.70707 -0.56048,-2.3608 -0.46429,-0.48999 -1.08959,-0.74743 -1.7154,-0.76429 -0.62581,-0.0168 -1.2424,0.1981 -1.73238,0.66239 -0.97998,0.92857 -1.03048,2.4848 -0.10191,3.46477 0.62273,0.6572 1.52178,0.89276 2.34382,0.69635 l 14.82719,15.64243 -17.37482,-1.83429 c -0.34504,-0.76859 -1.07251,-1.33197 -1.97016,-1.42667 -0.16782,-0.0177 -0.33084,-0.0157 -0.49255,0 -1.13193,0.11002 -2.06702,0.99921 -2.19096,2.17397 -0.14164,1.34259 0.83139,2.54185 2.17398,2.68351 0.90522,0.0955 1.74565,-0.31201 2.24191,-1.00207 l 20.21118,2.15699 16.93323,17.86736 0.017,-0.017 14.30418,35.39315 c 0,0 -0.8713,4.55019 -1.08841,6.85291 -1.28899,13.67141 -1.24965,27.91305 -1.71662,41.63715 -0.80688,23.71398 -2.21007,70.67284 -2.21007,70.67284 l 9.0489,0.4103 c 0,0 -0.23392,-43.21081 -0.17857,-64.81623 0.0256,-9.98949 0.58671,-32.02802 0.60045,-48.04389 0.003,-3.96403 -0.12822,-11.89139 -0.12822,-11.89139 l 15.42164,-24.32135 9.42622,-5.43494 35.03836,-1.27381 c 0.45045,0.7101 1.23956,1.18771 2.14001,1.15493 1.34914,-0.0491 2.40993,-1.19849 2.3608,-2.54763 -0.0491,-1.34915 -1.18149,-2.39295 -2.53064,-2.34382 -0.90505,0.0329 -1.65928,0.56072 -2.05509,1.30778 l -30.41864,1.10395 26.05374,-15.031 c 0.73083,0.41962 1.64644,0.46784 2.42873,0.017 1.1697,-0.6741 1.57427,-2.17618 0.90017,-3.34588 -0.42132,-0.73106 -1.15298,-1.16679 -1.9362,-1.22286 -0.46993,-0.0336 -0.95407,0.0699 -1.3927,0.3227 -0.78322,0.45136 -1.22056,1.27924 -1.22287,2.12302 l -9.17145,5.28211 7.54097,-14.45354 c 0.84304,-0.0373 1.65357,-0.50644 2.07207,-1.30778 0.62496,-1.19668 0.16064,-2.66998 -1.03603,-3.29493 -0.29917,-0.15624 -0.61748,-0.24606 -0.93413,-0.27175 -0.11874,-0.01 -0.23862,-0.008 -0.35667,0 -0.82638,0.0539 -1.61099,0.52247 -2.02112,1.30778 -0.42075,0.80567 -0.33881,1.73107 0.11889,2.44572 l -9.32431,17.85038 -22.86071,13.17972 26.78405,-42.22267 c 0.83364,0.0235 1.66126,-0.34901 2.14001,-1.10397 0.723,-1.14012 0.39281,-2.65686 -0.7473,-3.37986 -0.42755,-0.27112 -0.92177,-0.40435 -1.39271,-0.39063 -0.78489,0.0229 -1.53527,0.42536 -1.98715,1.13794 -0.48147,0.75925 -0.48519,1.68246 -0.1019,2.42874 l -10.58115,16.69545 3.8724,-18.73355 8.06748,-6.9805 c 0.79742,0.27403 1.71179,0.14967 2.39477,-0.44159 1.02069,-0.88363 1.13839,-2.4271 0.25476,-3.44779 -0.44181,-0.51035 -1.057,-0.80426 -1.68143,-0.84921 -0.62442,-0.045 -1.25601,0.15263 -1.76635,0.59445 -0.68497,0.59298 -0.95824,1.47934 -0.79826,2.30984 l -5.65573,4.89145 2.51366,-12.16067 c 0.80352,-0.26508 1.44671,-0.9298 1.63048,-1.81731 0.27373,-1.322 -0.58024,-2.61358 -1.90223,-2.88731 -0.16525,-0.0342 -0.33008,-0.0507 -0.49254,-0.0509 -1.13727,-0.002 -2.15525,0.79644 -2.39477,1.95318 -0.18249,0.88133 0.14078,1.74709 0.76429,2.30985 l -8.50908,41.15267 -28.48247,44.92316 0.88318,-26.00278 25.73103,-59.4786 c 0.83153,-0.10368 1.59663,-0.61943 1.95318,-1.44366 0.53602,-1.23907 -0.0347,-2.67399 -1.27381,-3.21001 -0.30977,-0.134 -0.63344,-0.20128 -0.95112,-0.20381 -0.95303,-0.008 -1.87386,0.54833 -2.27588,1.47763 -0.3591,0.83012 -0.21379,1.73332 0.28873,2.41175 l -8.39018,19.41292 2.24191,-23.55706 c 0.76765,-0.35183 1.34082,-1.08661 1.42667,-1.98715 0.12812,-1.34395 -0.864,-2.5384 -2.20794,-2.66652 -0.168,-0.016 -0.33101,-0.0173 -0.49254,0 -1.13077,0.12142 -2.06188,1.03199 -2.17398,2.20795 -0.0856,0.89767 0.33563,1.71679 1.01905,2.20794 l -2.95524,31.0301 -11.71909,27.10675 2.14001,-62.55274 c 0.73516,-0.4007 1.2602,-1.15827 1.2908,-2.05508 0.046,-1.34925 -1.01155,-2.46763 -2.3608,-2.51366 -1.34926,-0.046 -2.48461,1.01154 -2.53064,2.3608 -0.0309,0.90576 0.43673,1.69275 1.15492,2.14001 l -1.35873,39.67504 -7.99955,-37.48408 c 0.62004,-0.56657 0.93518,-1.42965 0.7473,-2.30985 -0.2466,-1.15526 -1.27453,-1.94562 -2.41175,-1.9362 -0.16247,0.001 -0.32751,0.0158 -0.49255,0.0509 -1.32029,0.28182 -2.15008,1.584 -1.86826,2.90429 0.18966,0.88853 0.83962,1.55852 1.64747,1.81731 l 10.03765,47.08015 -1.76635,51.97159 -25.6631,-60.68448 0.017,0 -0.66238,-42.81712 c 0.71929,-0.4356 1.20296,-1.22209 1.18889,-2.12302 -0.0211,-1.34988 -1.12982,-2.43284 -2.47969,-2.41175 z"
         style="font-size:medium;font-style:normal;font-variant:normal;font-weight:normal;font-stretch:normal;text-indent:0;text-align:start;text-decoration:none;line-height:normal;letter-spacing:normal;word-spacing:normal;text-transform:none;direction:ltr;block-progression:tb;writing-mode:lr-tb;text-anchor:start;baseline-shift:baseline;color:#000000;fill:#657b83;fill-opacity:1;stroke:none;stroke-width:4.5;marker:none;visibility:visible;display:inline;overflow:visible;enable-background:accumulate;font-family:Sans;-inkscape-font-specification:Sans"
         inkscape:connector-curvature="0" />
    </g>
  </g>
</svg>
