<?xml version="1.0" encoding="UTF-8" standalone="no"?>
<!-- Created with Inkscape (http://www.inkscape.org/) -->

<svg
   xmlns:dc="http://purl.org/dc/elements/1.1/"
   xmlns:cc="http://creativecommons.org/ns#"
   xmlns:rdf="http://www.w3.org/1999/02/22-rdf-syntax-ns#"
   xmlns:svg="http://www.w3.org/2000/svg"
   xmlns="http://www.w3.org/2000/svg"
   xmlns:sodipodi="http://sodipodi.sourceforge.net/DTD/sodipodi-0.dtd"
   xmlns:inkscape="http://www.inkscape.org/namespaces/inkscape"
   width="139.99963"
   height="238.99995"
   id="svg3269"
   version="1.1"
   inkscape:version="0.48.4 r9943 custom"
   sodipodi:docname="logo.svg">
  <defs
     id="defs3271" />
  <sodipodi:namedview
     id="base"
     pagecolor="#ffffff"
     bordercolor="#666666"
     borderopacity="1.0"
     inkscape:pageopacity="0.0"
     inkscape:pageshadow="2"
     inkscape:zoom="0.35"
     inkscape:cx="-390.59947"
     inkscape:cy="-85.25612"
     inkscape:document-units="px"
     inkscape:current-layer="layer1"
     showgrid="false"
     fit-margin-top="0"
     fit-margin-left="0"
     fit-margin-right="0"
     fit-margin-bottom="0"
     inkscape:window-width="909"
     inkscape:window-height="460"
     inkscape:window-x="0"
     inkscape:window-y="285"
     inkscape:window-maximized="0" />
  <metadata
     id="metadata3274">
    <rdf:RDF>
      <cc:Work
         rdf:about="">
        <dc:format>image/svg+xml</dc:format>
        <dc:type
           rdf:resource="http://purl.org/dc/dcmitype/StillImage" />
        <dc:title></dc:title>
      </cc:Work>
    </rdf:RDF>
  </metadata>
  <g
     inkscape:label="Layer 1"
     inkscape:groupmode="layer"
     id="layer1"
     transform="translate(-1077.1588,-569.072)">
    <path
       style="font-size:medium;font-style:normal;font-variant:normal;font-weight:normal;font-stretch:normal;text-indent:0;text-align:start;text-decoration:none;line-height:normal;letter-spacing:normal;word-spacing:normal;text-transform:none;direction:ltr;block-progression:tb;writing-mode:lr-tb;text-anchor:start;baseline-shift:baseline;color:#000000;fill:#bd5b12;fill-opacity:1;fill-rule:nonzero;stroke:none;stroke-width:4;marker:none;visibility:visible;display:inline;overflow:visible;enable-background:accumulate;font-family:Sans;-inkscape-font-specification:Sans"
       d="m 1132.1748,569.17663 c -4.4318,0.20398 -8.7926,0.71932 -13.0412,1.50307 -0.042,0.005 -0.08,0.0259 -0.1213,0.0307 -14.3669,1.62561 -25.7068,9.91701 -32.967,21.13513 -7.2,11.12528 -8.8494,25.01601 -8.8861,38.61994 -0.1148,42.60155 25.2263,60.98265 49.8901,67.42382 l 0.091,0 0.091,0.0307 c 22.5607,3.02565 47.7719,2.69725 69.0273,-7.88349 l 0.1517,-0.092 0.1516,-0.092 c 11.7365,-8.67223 17.9914,-22.01957 19.9258,-36.16591 1.9311,-14.12321 -0.3887,-29.11802 -5.9141,-41.56473 -0.01,-0.0216 -0.021,-0.0398 -0.03,-0.0613 -7.185,-17.75615 -21.615,-29.70135 -38.3957,-36.38062 -12.6007,-5.01551 -26.5517,-7.12085 -39.9727,-6.50311 z"
       id="path4518"
       inkscape:connector-curvature="0"
       sodipodi:nodetypes="ccsssccccccsccscc" />
    <path
       style="font-size:medium;font-style:normal;font-variant:normal;font-weight:normal;font-stretch:normal;text-indent:0;text-align:start;text-decoration:none;line-height:normal;letter-spacing:normal;word-spacing:normal;text-transform:none;direction:ltr;block-progression:tb;writing-mode:lr-tb;text-anchor:start;baseline-shift:baseline;color:#000000;fill:#b58900;fill-opacity:1;stroke:none;stroke-width:3;marker:none;visibility:visible;display:inline;overflow:visible;enable-background:accumulate;font-family:Sans;-inkscape-font-specification:Sans"
       d="m 1146.6263,578.09327 c -2.088,-0.0712 -3.8411,1.55171 -3.9123,3.64035 -0.055,1.61051 0.9353,3.01576 2.3352,3.61 l -1.486,44.89759 -10.1297,-28.27334 c 1.1076,-0.99716 1.5638,-2.6058 1.0312,-4.0954 -0.7037,-1.96775 -2.855,-2.97907 -4.8223,-2.27521 -1.9672,0.70386 -3.0085,2.85571 -2.3049,4.82346 0.5278,1.47582 1.8938,2.43411 3.3665,2.5179 l 12.5862,35.22033 -1.6377,48.90197 -24.4143,-57.72979 0.06,0 3.2754,-40.13481 c 1.4281,-0.44633 2.5084,-1.69378 2.6386,-3.27631 0.1713,-2.08281 -1.3752,-3.92398 -3.4575,-4.09539 -0.2603,-0.0215 -0.5082,-0.03 -0.7581,0 -1.7497,0.20975 -3.1862,1.63588 -3.3362,3.45833 -0.1278,1.55296 0.7082,2.98166 2.0017,3.67068 l -2.8206,34.67429 -12.1616,-28.72839 c 0.642,-0.6785 1.0615,-1.57133 1.0615,-2.57858 0,-2.08985 -1.7017,-3.79203 -3.791,-3.79203 -2.0893,0 -3.7911,1.70218 -3.7911,3.79203 0,2.08985 1.7018,3.76169 3.7911,3.76169 0.031,0 0.06,7.5e-4 0.091,0 l 5.3378,12.6502 -5.5198,-1.82017 c -0.1231,-1.4702 -1.1193,-2.81841 -2.6082,-3.30665 -1.9854,-0.65099 -4.1108,0.44103 -4.7616,2.4269 -0.6508,1.98587 0.4106,4.14213 2.396,4.79311 1.5029,0.4928 3.0971,-0.0187 4.064,-1.15276 l 7.9156,2.6089 16.438,38.86068 -27.5381,-25.3914 c 0.5111,-1.39477 0.1589,-3.02685 -1.0008,-4.09539 -1.5368,-1.41583 -3.9223,-1.32481 -5.3378,0.21236 -1.4155,1.53717 -1.3245,3.95367 0.2122,5.3695 1.1526,1.06188 2.812,1.27722 4.1551,0.66741 l 0.03,0 14.1633,13.04456 -14.1633,0.0607 c -0.5787,-1.35704 -1.9208,-2.30998 -3.4878,-2.30555 -2.0893,0.006 -3.7969,1.70219 -3.791,3.79203 0.01,2.08983 1.7321,3.76761 3.8214,3.76169 1.577,-0.005 2.8927,-0.96171 3.4574,-2.33589 l 17.3175,-0.0607 14.9215,13.77265 15.3462,36.31244 -3.8214,114.03379 2.9115,0.0909 4.064,-121.01113 14.5273,-21.99375 11.2215,-5.91556 28.5693,-0.72807 c 0.6011,1.34722 1.9817,2.27543 3.5484,2.24488 2.0889,-0.0408 3.7408,-1.76324 3.7,-3.8527 -0.041,-2.08945 -1.7627,-3.74175 -3.8516,-3.70101 -1.5768,0.0308 -2.9158,1.01317 -3.4575,2.39656 l -22.7159,0.57639 23.8987,-12.61987 c 1.1417,0.98236 2.8011,1.22643 4.2157,0.48539 1.8507,-0.9696 2.5767,-3.24518 1.6073,-5.09648 -0.9693,-1.85131 -3.2746,-2.57743 -5.1254,-1.60782 -1.3785,0.72215 -2.1099,2.18022 -2.0017,3.64034 l -11.1001,5.85488 4.8828,-11.40641 0.03,0 c 1.4637,-0.0183 2.8269,-0.8694 3.4271,-2.30554 0.8058,-1.92817 -0.1043,-4.1388 -2.032,-4.94481 -1.9277,-0.80601 -4.1377,0.10437 -4.9435,2.03253 -0.6132,1.46721 -0.2172,3.07241 0.8492,4.12572 l -6.3083,14.65239 -21.0782,11.13343 25.2028,-38.19328 0.03,0 c 1.4413,0.25597 2.9632,-0.33971 3.8214,-1.63815 1.1523,-1.7433 0.651,-4.0956 -1.0918,-5.24816 -1.7429,-1.15258 -4.0945,-0.68153 -5.2468,1.06176 -0.8772,1.32717 -0.791,3.0126 0.06,4.24707 l -9.4018,14.22768 3.6697,-19.77921 11.2519,-9.25254 c 0.01,0.004 0.023,-0.004 0.03,0 1.3127,0.67279 2.9534,0.55102 4.155,-0.45505 1.6021,-1.3414 1.8263,-3.73665 0.4852,-5.33917 -1.341,-1.60252 -3.7356,-1.79646 -5.3378,-0.45504 -1.2015,1.00606 -1.6138,2.59345 -1.1827,4.00438 l -8.5526,7.06833 2.1836,-11.86145 0.03,0 c 1.4406,-0.31635 2.6245,-1.49276 2.9115,-3.03362 0.3828,-2.05447 -0.9789,-4.01588 -3.0328,-4.39875 -2.054,-0.38287 -4.0149,0.97914 -4.3976,3.03362 -0.2856,1.53253 0.3898,3.03559 1.6074,3.85269 l -7.9762,42.8954 -26.9013,40.71119 0.8189,-24.42064 23.6864,-54.33215 c 1.475,0.0117 2.896,-0.83666 3.5181,-2.27522 0.8296,-1.91805 -0.053,-4.14538 -1.9713,-4.97514 -1.9176,-0.82974 -4.1444,0.0538 -4.9738,1.97186 -0.6282,1.45215 -0.2829,3.0893 0.7581,4.15606 l -6.2172,14.25802 0.1819,-21.56904 c 1.3961,-0.54825 2.4132,-1.92771 2.4263,-3.51901 0.017,-2.08978 -1.6715,-3.80514 -3.7607,-3.82236 -2.0893,-0.0172 -3.8042,1.67192 -3.8214,3.7617 -0.013,1.55259 0.9111,2.89376 2.2443,3.48865 l -0.2426,28.30368 0.06,0 -11.6158,26.63519 2.123,-63.79704 c 1.3227,-0.55357 2.2832,-1.81055 2.3354,-3.33698 0.071,-2.08863 -1.5817,-3.84213 -3.6698,-3.91337 z"
       id="path5100"
       inkscape:connector-curvature="0" />
  </g>
</svg>
