<svg xmlns="http://www.w3.org/2000/svg" width="140" height="242.095"><path d="M49.756 127.326C34.54 120.873 17.664 114.53 7.88 100.241c-5.592-8.054-4.836-18.215-6.673-27.423-2.266-18.374-2.456-39.176 9.557-54.475C23.222 3.173 44.354-1.067 63.076.215c13.9 1.167 27.899 4.024 40.659 9.754 25.11 12.836 38.148 42.501 36.045 69.887-1.025 12.602-4.977 25.46-13.126 35.281-13.369 12.595-32.944 11.399-50.201 13.36-4.14.471-16.55 3.132-26.697-1.17z" fill="#bd5b12"/><path d="M37.417 11.263a2.447 2.447 0 0 0-1.155 4.585l.578 36.805L23.915 22.1c.288-.402.475-.879.475-1.41a2.447 2.447 0 0 0-4.891 0c0 1.257.954 2.274 2.174 2.412l6.454 15.268-6.964-1.273a2.438 2.438 0 0 0-1.851-1.597 2.437 2.437 0 0 0-.493-.034 2.456 2.456 0 0 0-2.36 2.004 2.457 2.457 0 0 0 1.97 2.854c.89.163 1.745-.19 2.293-.833l8.543 1.563 16.933 40.066L16.272 49.51a2.427 2.427 0 0 0-.56-2.36 2.454 2.454 0 0 0-1.716-.765 2.396 2.396 0 0 0-1.732.662 2.456 2.456 0 0 0-.102 3.465 2.441 2.441 0 0 0 2.344.697l14.827 15.642-17.375-1.834a2.43 2.43 0 0 0-2.463-1.427 2.441 2.441 0 0 0-.017 4.857 2.439 2.439 0 0 0 2.242-1.002l20.211 2.157 16.934 17.868.016-.017 15.932 37.67L60.82 242.01l2.446.085 4.246-124.426 15.422-24.322 9.426-5.435 35.038-1.273c.45.71 1.24 1.187 2.14 1.154a2.464 2.464 0 0 0 2.361-2.547 2.435 2.435 0 0 0-2.53-2.344c-.906.033-1.66.56-2.056 1.308l-30.418 1.104 26.054-15.031c.73.42 1.646.468 2.428.017a2.454 2.454 0 0 0-1.036-4.569c-.47-.034-.954.07-1.392.323a2.456 2.456 0 0 0-1.223 2.123l-9.172 5.282 7.541-14.454a2.456 2.456 0 0 0 2.072-1.308 2.44 2.44 0 0 0-1.036-3.294 2.446 2.446 0 0 0-.934-.272 2.449 2.449 0 0 0-.357 0 2.456 2.456 0 0 0-2.02 1.308 2.431 2.431 0 0 0 .118 2.445l-9.324 17.85-22.86 13.18 26.783-42.222c.834.023 1.661-.35 2.14-1.104a2.45 2.45 0 0 0-.747-3.38 2.492 2.492 0 0 0-1.393-.39 2.443 2.443 0 0 0-2.09 3.567L99.87 62.078l3.872-18.733 8.068-6.98c.797.273 1.712.149 2.395-.442a2.445 2.445 0 0 0 .254-3.448 2.469 2.469 0 0 0-1.681-.85 2.419 2.419 0 0 0-1.766.595 2.436 2.436 0 0 0-.799 2.31l-5.655 4.892 2.513-12.161a2.43 2.43 0 0 0 1.63-1.817 2.445 2.445 0 0 0-4.789-.986c-.182.882.141 1.748.765 2.31l-8.51 41.153-28.482 44.923.883-26.003 25.731-59.478a2.443 2.443 0 0 0 1.953-1.444 2.44 2.44 0 0 0-1.273-3.21 2.446 2.446 0 0 0-.952-.204 2.464 2.464 0 0 0-2.275 1.478c-.36.83-.214 1.733.288 2.412l-8.39 19.413 2.242-23.557a2.446 2.446 0 0 0 1.427-1.988 2.45 2.45 0 0 0-2.208-2.666 2.43 2.43 0 0 0-.493 0 2.458 2.458 0 0 0-2.174 2.208 2.432 2.432 0 0 0 1.02 2.208l-2.956 31.03L68.787 80.15l2.14-62.553a2.442 2.442 0 0 0 1.29-2.055 2.434 2.434 0 0 0-2.36-2.514 2.45 2.45 0 0 0-2.53 2.36 2.412 2.412 0 0 0 1.154 2.14l-1.358 39.676-8-37.484c.62-.567.935-1.43.747-2.31a2.45 2.45 0 0 0-2.904-1.885 2.44 2.44 0 0 0-1.868 2.904c.19.889.84 1.559 1.647 1.817l10.038 47.08-1.767 51.972-25.663-60.684h.017l-.662-42.817a2.438 2.438 0 0 0 1.189-2.124 2.447 2.447 0 0 0-2.48-2.411z" style="text-indent:0;text-align:start;line-height:normal;text-transform:none;block-progression:tb;marker:none;-inkscape-font-specification:Sans" font-weight="400" color="#000" fill="#b58900" overflow="visible" font-family="Sans"/></svg>