<svg xmlns="http://www.w3.org/2000/svg" width="113" height="207"><g color="#000"><path d="M113 54.975c0 30.362-25.296 54.975-56.5 54.975S0 85.337 0 54.975C0 24.613 25.296 0 56.5 0S113 24.613 113 54.975z" style="marker:none" fill="#bace68" overflow="visible"/><path style="text-indent:0;text-align:start;line-height:normal;text-transform:none;block-progression:tb;marker:none;-inkscape-font-specification:Sans" d="M55.058 11.215c-.103.006-.201.004-.305.02-1.662.253-2.803 1.822-2.55 3.485a3.04 3.04 0 0 0 1.789 2.324c.378 3.037.681 6.7.913 10.476l-.019.019v.095c.284 5.547.36 11.714.305 18.19C51.289 41.53 47.419 36.543 42 27.958c.75-.976.875-2.358.19-3.467a3.063 3.063 0 0 0-4.207-.99c-1.43.884-1.855 2.76-.97 4.19a3.02 3.02 0 0 0 2.836 1.429c6.33 10.036 10.677 15.345 15.304 20.228-.114 7.069-.397 14.46-.762 21.847-5.28-5.413-17.211-16.03-25.335-30.057.6-.907.705-2.1.152-3.123a3.057 3.057 0 0 0-2.97-1.6 3.07 3.07 0 0 0-1.16.362 3.056 3.056 0 0 0-1.238 4.133c.632 1.17 1.918 1.741 3.16 1.543C35.355 56.81 48.808 69.949 54.182 75.46c-.374 6.91-.824 13.676-1.294 20.19-6.605-6.227-28.898-23.235-37.88-40.113a3.047 3.047 0 0 0 .305-3.352 3.03 3.03 0 0 0-4.112-1.238 3.056 3.056 0 0 0-1.237 4.133 3.039 3.039 0 0 0 2.931 1.58c8.658 15.754 26.237 31.173 39.688 43.314a1821.87 1821.87 0 0 1-1.675 20.551c-2.44 28.218.976 80.854 1.333 86.188l.019.286h5.996l-.039-.343c-.062-.64-5.534-57.23-3.064-85.788.541-6.262 1.17-13.682 1.751-21.751 15.466-12.593 30.784-23.145 42.448-40.8a3.06 3.06 0 0 0 3.122-1.37c.895-1.424.451-3.295-.971-4.191a3.024 3.024 0 0 0-1.713-.476 3.049 3.049 0 0 0-2.475 4.667C86.382 73.45 72.098 82.89 57.21 94.793c.438-6.466.83-13.272 1.123-20.21 5.29-5.322 20.13-17.137 29.066-35.35a3.02 3.02 0 0 0 2.76-1.753c.71-1.524.058-3.346-1.466-4.057a3.046 3.046 0 0 0-4.054 1.467 3.058 3.058 0 0 0 .495 3.314c-8.414 16.814-21.11 26.466-26.649 31.942.245-6.945.387-13.96.343-20.818 4.156-3.75 9.453-9.081 12.791-17.58a3.038 3.038 0 0 0 2.532-2.039c.537-1.594-.311-3.33-1.904-3.866a3.032 3.032 0 0 0-1.199-.153 3.066 3.066 0 0 0-2.665 2.076 3.04 3.04 0 0 0 .895 3.276c-2.739 6.882-6.813 11.504-10.488 14.99-.084-5.552-.285-10.981-.648-16.151-.007-.11-.01-.216-.019-.324-.249-4.283-.623-9.15-1.085-12.876a3.012 3.012 0 0 0 1.18-2.876 3.053 3.053 0 0 0-3.16-2.59z" font-weight="400" fill="#44392d" overflow="visible" font-family="Sans"/></g></svg>